<?xml version="1.0" encoding="UTF-8"?>
<svg version="1.1" xmlns="http://www.w3.org/2000/svg" width="1920" height="1080">
<path d="M0 0 C633.6 0 1267.2 0 1920 0 C1920 356.4 1920 712.8 1920 1080 C1286.4 1080 652.8 1080 0 1080 C0 723.6 0 367.2 0 0 Z " fill="#FEFEFE" transform="translate(0,0)"/>
<path d="M0 0 C31.30875 -0.0825 62.6175 -0.165 94.875 -0.25 C109.63387939 -0.30462402 109.63387939 -0.30462402 124.69091797 -0.36035156 C136.82446289 -0.37841797 136.82446289 -0.37841797 142.52761841 -0.3817749 C146.46073674 -0.38546035 150.39363307 -0.40028255 154.32669067 -0.42230225 C206.30270081 -0.70045736 255.87878063 6.44334503 295.0625 43.75 C320.89854168 70.63842627 328.7407544 104.03822419 328.28125 140.3671875 C328.04530716 149.9157941 326.5729418 158.82239904 324 168 C323.81808105 168.6698291 323.63616211 169.3396582 323.44873047 170.02978516 C318.00638011 189.53762009 307.7901696 205.3479448 294 220 C293.13375 220.98033203 293.13375 220.98033203 292.25 221.98046875 C264.59451006 251.92000585 220.02084101 262.38597792 180.93444061 264.09005356 C170.2106077 264.43003481 159.47631489 264.28084174 148.75 264.1875 C138.6025 264.125625 128.455 264.06375 118 264 C118 292.38 118 320.76 118 350 C79.06 350 40.12 350 0 350 C0 234.5 0 119 0 0 Z " fill="#0A837F" transform="translate(8,388)"/>
<path d="M0 0 C0.87398437 0.70769531 1.74796875 1.41539062 2.6484375 2.14453125 C22.49777879 19.01960216 36.84766707 44.63514559 42 70 C42.14808105 70.69657715 42.29616211 71.3931543 42.44873047 72.11083984 C46.55536931 92.14893873 45.55926384 112.72957008 44 133 C-18.7 133 -81.4 133 -146 133 C-137.50188164 148.57988366 -129.7497895 156.51057319 -113 162 C-91.16601839 167.21966762 -66.07414771 163.21470412 -47 152 C-44.03031903 150.07390975 -41.10186072 148.12960729 -38.234375 146.0546875 C-36 145 -36 145 -34.21002197 145.59860229 C-31.2315711 147.48726868 -28.86739699 149.87078803 -26.40527344 152.36767578 C-25.85848938 152.91416779 -25.31170532 153.46065979 -24.74835205 154.02371216 C-22.94724351 155.82621093 -21.15331753 157.63568396 -19.359375 159.4453125 C-18.10999505 160.69842367 -16.86017199 161.95109319 -15.60992432 163.20333862 C-12.32413128 166.49675955 -9.0443893 169.79614291 -5.76586914 173.09680176 C-2.41785747 176.46528994 0.93583907 179.8281076 4.2890625 183.19140625 C10.86495296 189.78873176 17.43446516 196.39236983 24 203 C15.68973816 220.19571283 -9.82377425 231.95396458 -27.01318359 237.96118164 C-35.55686361 240.81390192 -44.14363508 243.31478077 -53 245 C-54.44826172 245.28810547 -54.44826172 245.28810547 -55.92578125 245.58203125 C-103.32171748 254.3079056 -158.21117032 247.36289241 -199 221 C-206.86212936 215.58085042 -214.0608994 209.54800797 -221 203 C-221.81082031 202.26523437 -222.62164062 201.53046875 -223.45703125 200.7734375 C-247.39798866 178.22746501 -260.13039174 143.99871466 -261.30859375 111.5859375 C-262.06309745 71.0932207 -249.59602859 36.938705 -221.58789062 7.51660156 C-164.94423063 -50.36538951 -60.97064038 -50.17867949 0 0 Z " fill="#0A837F" transform="translate(618,495)"/>
<path d="M0 0 C0.7513623 0.2263916 1.50272461 0.4527832 2.27685547 0.68603516 C21.83609826 6.69785354 39.51323504 15.56991033 55 29 C56.25490234 30.03060547 56.25490234 30.03060547 57.53515625 31.08203125 C83.64013881 53.06753114 97.00140927 86.75708685 100 120 C100.72033376 133.72755954 99.91440158 147.28397627 99 161 C36.3 161 -26.4 161 -91 161 C-82.99858069 177.00283862 -76.5331544 183.88866514 -60.32421875 190.23828125 C-53.75457355 192.39135825 -47.26174571 192.18612928 -40.40966797 192.18530273 C-38.40197665 192.18747087 -36.39432434 192.2059294 -34.38671875 192.22460938 C-14.58156842 192.2541693 3.32523884 186.34052101 19 174 C22.97526224 175.6006756 25.64020304 178.37143556 28.59472656 181.36767578 C29.14151062 181.91416779 29.68829468 182.46065979 30.25164795 183.02371216 C32.05275649 184.82621093 33.84668247 186.63568396 35.640625 188.4453125 C36.89000495 189.69842367 38.13982801 190.95109319 39.39007568 192.20333862 C42.67586872 195.49675955 45.9556107 198.79614291 49.23413086 202.09680176 C52.58214253 205.46528994 55.93583907 208.8281076 59.2890625 212.19140625 C65.86495296 218.78873176 72.43446516 225.39236983 79 232 C70.62661578 249.42818247 44.64251308 261.06630363 27.37304688 267.26635742 C-22.83301477 284.42757106 -82.30553801 281.0187169 -130 258 C-145.46432374 250.27871318 -159.1054983 239.50447615 -171 227 C-171.98033203 225.99453125 -171.98033203 225.99453125 -172.98046875 224.96875 C-187.75799952 209.30100653 -197.88573551 188.85636989 -203 168 C-203.16226074 167.34870117 -203.32452148 166.69740234 -203.49169922 166.02636719 C-211.79229904 130.88801789 -205.31301213 91.70328285 -186.5 61.0625 C-162.36158933 24.90949579 -127.00320621 4.38216936 -85.13818359 -4.13525391 C-57.21186959 -9.59570636 -27.2678381 -8.39261604 0 0 Z " fill="#0A837F" transform="translate(1804,466)"/>
<path d="M0 0 C38.94 0 77.88 0 118 0 C118 85.8 118 171.6 118 260 C170.14 260 222.28 260 276 260 C276 290.03 276 320.06 276 351 C184.92 351 93.84 351 0 351 C0 235.17 0 119.34 0 0 Z " fill="#0A837F" transform="translate(933,387)"/>
<path d="M0 0 C0.92108551 -0.0010675 1.84217102 -0.00213501 2.79116821 -0.00323486 C25.03081375 0.03381077 51.00463813 0.69059208 70.125 13.4375 C68.14861768 21.01954679 65.867147 28.44169681 63.32421875 35.8515625 C62.96536087 36.90548187 62.60650299 37.95940125 62.23677063 39.04525757 C61.48109815 41.26263589 60.72384823 43.47947719 59.96508789 45.69580078 C58.82302456 49.03175785 57.68547447 52.36922507 56.54882812 55.70703125 C52.47909576 67.64282597 48.35729596 79.55834299 44.125 91.4375 C39.60851245 90.84032514 35.73895929 90.04073189 31.5 88.375 C22.40288094 85.27060812 13.19423369 84.96162623 4.34765625 89.046875 C-2.26942091 93.18690922 -5.8875542 99.03978506 -7.875 106.4375 C-8.205 110.0675 -8.535 113.6975 -8.875 117.4375 C10.595 117.4375 30.065 117.4375 50.125 117.4375 C50.125 144.8275 50.125 172.2175 50.125 200.4375 C31.645 200.4375 13.165 200.4375 -5.875 200.4375 C-5.875 258.5175 -5.875 316.5975 -5.875 376.4375 C-43.165 376.4375 -80.455 376.4375 -118.875 376.4375 C-118.875 318.3575 -118.875 260.2775 -118.875 200.4375 C-131.085 200.4375 -143.295 200.4375 -155.875 200.4375 C-155.875 173.0475 -155.875 145.6575 -155.875 117.4375 C-143.665 117.4375 -131.455 117.4375 -118.875 117.4375 C-118.875 112.1575 -118.875 106.8775 -118.875 101.4375 C-118.44348254 97.51830611 -117.96869934 93.79171491 -117.25 89.9375 C-117.07178711 88.95974609 -116.89357422 87.98199219 -116.70996094 86.97460938 C-115.03838386 78.35934072 -112.55611524 70.39678173 -108.875 62.4375 C-108.58641113 61.8094043 -108.29782227 61.18130859 -108.00048828 60.53417969 C-95.9804538 35.0119215 -75.20285845 17.10432952 -48.875 7.4375 C-45.97631079 6.43563688 -43.06212894 5.50749892 -40.125 4.625 C-39.47684326 4.4300293 -38.82868652 4.23505859 -38.16088867 4.03417969 C-25.51778068 0.45835116 -13.04755689 -0.00320661 0 0 Z " fill="#0A837F" transform="translate(1532.875,361.5625)"/>
<path d="M0 0 C37.62 0 75.24 0 114 0 C114 25.08 114 50.16 114 76 C132.48 76 150.96 76 170 76 C170 103.39 170 130.78 170 159 C151.52 159 133.04 159 114 159 C114.06177852 172.84590396 114.06177852 172.84590396 114.16015625 186.69140625 C114.20842243 192.34228789 114.25249291 197.99297527 114.27099609 203.64404297 C114.28619161 208.20247557 114.32068828 212.7603984 114.36830902 217.31860352 C114.38309303 219.05358437 114.3910393 220.78863801 114.39188385 222.52368164 C114.39426433 224.96294871 114.42142845 227.40081923 114.45410156 229.83984375 C114.44655602 230.90476295 114.44655602 230.90476295 114.43885803 231.99119568 C114.56813465 238.26988471 116.61483831 243.62833922 121.0703125 248.05859375 C121.74835938 248.51363281 122.42640625 248.96867188 123.125 249.4375 C123.80820312 249.91058594 124.49140625 250.38367188 125.1953125 250.87109375 C131.23333316 254.64812399 140.04970728 253.62604298 147 253 C150.10537137 252.22891456 152.82724358 251.28051376 155.73828125 249.97265625 C158.15056831 248.93524782 160.42570484 248.47936621 163 248 C165.80248008 254.81315906 168.3312547 261.67849473 170.6796875 268.66015625 C171.01493439 269.64890244 171.35018127 270.63764862 171.69558716 271.65635681 C172.75796146 274.79087485 173.81670433 277.92660282 174.875 281.0625 C175.92351653 284.16369486 176.97284454 287.26461041 178.02349854 290.36508179 C178.70698491 292.38339945 179.38876826 294.40229469 180.06878662 296.42178345 C181.61765015 301.00600784 183.19445171 305.57290768 184.87988281 310.10888672 C185.16662872 310.88759628 185.45337463 311.66630585 185.74880981 312.46861267 C186.27772225 313.89469571 186.81673384 315.31709443 187.36813354 316.7346344 C188.76114901 320.50110016 189.47774049 323.17873696 188 327 C185.72031788 328.32721219 183.82755588 329.19900547 181.375 330.0625 C180.703479 330.31290039 180.03195801 330.56330078 179.34008789 330.82128906 C167.836038 335.00067806 156.16889631 337.65262803 144 339 C143.05898438 339.11214844 142.11796875 339.22429687 141.1484375 339.33984375 C103.56345085 343.03755807 64.19330106 338.83635355 33.625 314.9375 C32.07143285 313.63910813 30.52860613 312.32768809 29 311 C28.08154297 310.22462891 28.08154297 310.22462891 27.14453125 309.43359375 C7.89869967 291.86131274 1.3158649 262.88308631 0 238 C-0.16269656 231.81786282 -0.11726711 225.63286716 -0.09765625 219.44921875 C-0.09578656 217.69659974 -0.09436527 215.9439802 -0.09336853 214.19136047 C-0.08958668 209.62287909 -0.07979444 205.05443051 -0.06866455 200.48596191 C-0.0565375 194.98076302 -0.05202753 189.47555303 -0.04621124 183.97034454 C-0.03657952 175.64687369 -0.01739291 167.32347452 0 159 C-12.21 159 -24.42 159 -37 159 C-37 131.61 -37 104.22 -37 76 C-24.79 76 -12.58 76 0 76 C0 50.92 0 25.84 0 0 Z " fill="#0B837F" transform="translate(711,403)"/>
<path d="M0 0 C37.62 0 75.24 0 114 0 C114 90.42 114 180.84 114 274 C76.38 274 38.76 274 0 274 C0 183.58 0 93.16 0 0 Z " fill="#0B8380" transform="translate(1238,464)"/>
<path d="M0 0 C1.00804687 0.2784375 2.01609375 0.556875 3.0546875 0.84375 C17.16521577 5.00868964 28.87260849 13.55710359 36.4609375 26.15234375 C43.80361677 39.73816403 45.42482113 55.28255062 41.03125 70.171875 C35.53178254 85.25374789 26.56743921 97.16179044 12.09765625 104.46484375 C9.41889685 105.70534307 6.73102507 106.87990216 4 108 C3.18789062 108.35191406 2.37578125 108.70382812 1.5390625 109.06640625 C-16.53245221 115.7111632 -40.72769517 113.72926251 -58.2890625 106.6796875 C-74.11698077 99.34675321 -84.34003118 87.85792576 -91 72 C-95.38042135 59.1107071 -93.99139036 43.50513793 -88.78125 31.09765625 C-80.87573121 15.44033709 -67.60534895 5.77380665 -51.328125 0.0625 C-35.40332629 -4.95622444 -15.9235262 -5.14520624 0 0 Z " fill="#0B837F" transform="translate(1320,330)"/>
<path d="M0 0 C8.8275 -0.061875 17.655 -0.12375 26.75 -0.1875 C29.51213867 -0.21481201 32.27427734 -0.24212402 35.12011719 -0.27026367 C37.3456987 -0.27903763 39.57128508 -0.2866794 41.796875 -0.29296875 C42.92303223 -0.30831665 44.04918945 -0.32366455 45.20947266 -0.33947754 C58.30865761 -0.34373605 68.46101964 2.82618995 79.1875 10.1875 C87.99719952 18.99719952 90.97760006 29.3332703 91.1875 41.4375 C91.06267556 52.37212098 87.97145655 61.99041512 80.5 70.25 C68.959966 80.96574586 53.69173779 82.34311372 38.671875 82.1953125 C37.6813916 82.19329834 36.6909082 82.19128418 35.67041016 82.18920898 C32.03022517 82.17887865 28.39010709 82.1509581 24.75 82.125 C12.49875 82.063125 12.49875 82.063125 0 82 C0 54.94 0 27.88 0 0 Z " fill="#FDFEFE" transform="translate(126,479)"/>
<path d="M0 0 C7.29965056 5.42376271 12.7138506 13.54357248 15.796875 22.078125 C16.291875 25.543125 16.291875 25.543125 16.796875 29.078125 C-12.243125 29.078125 -41.283125 29.078125 -71.203125 29.078125 C-68.67171752 17.68679134 -64.35848722 7.12155212 -54.54296875 0.203125 C-36.93539752 -10.70220944 -17.69199492 -10.90853573 0 0 Z " fill="#FAFCFC" transform="translate(540.203125,543.921875)"/>
<path d="M0 0 C8.04162117 6.08675194 12.2703199 14.83450953 16 24 C16 25.32 16 26.64 16 28 C-13.04 28 -42.08 28 -72 28 C-69.35492104 16.09714466 -65.45835776 6.31367978 -55.26953125 -0.9453125 C-37.59647047 -11.87380286 -17.09218427 -12.41252113 0 0 Z " fill="#FAFCFC" transform="translate(1782,545)"/>
</svg>
